<svg id="Layer_1" data-name="Layer 1" xmlns="http://www.w3.org/2000/svg" xmlns:xlink="http://www.w3.org/1999/xlink" viewBox="0 0 602 178.92"><defs><style>.cls-1{mask:url(#mask);}.cls-2{mix-blend-mode:multiply;fill:url(#radial-gradient);}.cls-3{font-size:108.44px;font-family:BebasNeueBold, Bebas Neue;}.cls-3,.cls-4{fill:#00897b;}.cls-5{fill:url(#radial-gradient-2);}.cls-6{mask:url(#mask-2);}.cls-7{filter:url(#luminosity-noclip-2);}.cls-8{filter:url(#luminosity-noclip);}</style><filter id="luminosity-noclip" x="184.56" y="-8692" width="106.29" height="32766" filterUnits="userSpaceOnUse" color-interpolation-filters="sRGB"><feFlood flood-color="#fff" result="bg"/><feBlend in="SourceGraphic" in2="bg"/></filter><mask id="mask" x="184.56" y="-8692" width="106.29" height="32766" maskUnits="userSpaceOnUse"><g class="cls-8"/></mask><radialGradient id="radial-gradient" cx="237.7" cy="529.42" r="89.53" gradientUnits="userSpaceOnUse"><stop offset="0" stop-color="gray"/><stop offset="0.22" stop-color="#4d4d4d"/><stop offset="0.51" stop-color="#333"/></radialGradient><radialGradient id="radial-gradient-2" cx="237.7" cy="529.42" r="56.39" gradientUnits="userSpaceOnUse"><stop offset="0.22" stop-color="#808184"/><stop offset="0.65" stop-color="#58595b"/><stop offset="1" stop-color="#404041"/></radialGradient><filter id="luminosity-noclip-2" x="184.56" y="472.95" width="106.29" height="112.95" filterUnits="userSpaceOnUse" color-interpolation-filters="sRGB"><feFlood flood-color="#fff" result="bg"/><feBlend in="SourceGraphic" in2="bg"/></filter><mask id="mask-2" x="1.56" y="64.41" width="106.29" height="112.95" maskUnits="userSpaceOnUse"><g class="cls-7"><g transform="translate(-183 -408.54)"><g class="cls-1"><path class="cls-2" d="M234.24,585.87a2.15,2.15,0,0,1-2-1.81l-1.12-10-1.13-.21a41.42,41.42,0,0,1-16.23-6.83l-.94-.67-7.91,6.19a2,2,0,0,1-1.24.4,2.06,2.06,0,0,1-1.46-.57l-4.5-4.55a2.13,2.13,0,0,1-.14-2.7l6.26-7.84-.65-1a41.39,41.39,0,0,1-6.67-16.3l-.2-1.14-10-1.21a2.14,2.14,0,0,1-1.79-2l0-6.4a2.14,2.14,0,0,1,1.81-2l10-1.12.21-1.13a41.42,41.42,0,0,1,6.83-16.23l.67-.94L197.88,500a2.13,2.13,0,0,1,.17-2.7l4.54-4.5a2,2,0,0,1,1.45-.56,2,2,0,0,1,1.25.41l7.85,6.27,1-.65c.86-.59,1.81-1.19,2.93-1.82l.79-.45V479.43h-4.75a1.65,1.65,0,0,1-1.64-1.64v-3.2a1.64,1.64,0,0,1,1.64-1.64h11.23v27c-10.24,4-17.54,12.21-20.65,23.24a34.87,34.87,0,0,0,5.77,30.74,35.81,35.81,0,0,0,28.29,14.32,35.63,35.63,0,0,0,35.21-38.59A34.53,34.53,0,0,0,251.12,500V473h11.23a1.64,1.64,0,0,1,1.64,1.64v3.2a1.65,1.65,0,0,1-1.64,1.64H257.6v16.51l.79.45c1.19.68,2.26,1.36,3.27,2.06l.94.66,7.91-6.18a2,2,0,0,1,1.23-.4,2,2,0,0,1,1.47.57l4.5,4.54a2.14,2.14,0,0,1,.14,2.71l-6.26,7.84.65.95a41.27,41.27,0,0,1,6.67,16.3l.2,1.13,9.95,1.22a2.14,2.14,0,0,1,1.79,2l0,6.39a2.15,2.15,0,0,1-1.81,2l-10,1.11-.21,1.14A41.55,41.55,0,0,1,272,556.71l-.66.94,6.18,7.91a2.13,2.13,0,0,1-.17,2.7l-4.54,4.5a2.09,2.09,0,0,1-1.45.56,2,2,0,0,1-1.25-.42l-7.85-6.26-.95.65A41.33,41.33,0,0,1,245,574l-1.14.2-1.21,10a2.14,2.14,0,0,1-2,1.79Z"/></g></g></g></mask></defs><title>1</title><text class="cls-3" transform="translate(124.78 125.84)">TechAlchemy</text><path class="cls-4" d="M198.32,518.42h75.3s12.72,77.63-65.43,40.76C208.19,559.18,192.61,529.06,198.32,518.42Z" transform="translate(-183 -408.54)"/><path class="cls-4" d="M227,440.73V425.18a8.48,8.48,0,1,0-4.68,0V441.7a2.33,2.33,0,0,0,.69,1.65l12.58,12.58.26,108.77a2.34,2.34,0,1,0,4.67,0L240.29,455a2.32,2.32,0,0,0-.68-1.65ZM220.88,417a3.81,3.81,0,1,1,3.81,3.81A3.82,3.82,0,0,1,220.88,417Z" transform="translate(-183 -408.54)"/><path class="cls-4" d="M261,432.21a8.48,8.48,0,0,0-7.55,12.34L247,451a2.36,2.36,0,0,0-.69,1.66l.26,104.44a2.34,2.34,0,1,0,4.68,0L251,453.59l5.63-5.63a8.37,8.37,0,0,0,4.35,1.22,8.49,8.49,0,1,0,0-17Zm0,12.3a3.81,3.81,0,1,1,3.81-3.81A3.82,3.82,0,0,1,261,444.51Z" transform="translate(-183 -408.54)"/><path class="cls-4" d="M219.61,455.81a8.47,8.47,0,1,0-7.57,4.68,8.33,8.33,0,0,0,4.39-1.25l8.48,8.48.26,89.35a2.34,2.34,0,1,0,4.68,0l-.26-90.32a2.33,2.33,0,0,0-.69-1.65Zm-7.57,0a3.81,3.81,0,1,1,3.81-3.81A3.82,3.82,0,0,1,212,455.81Z" transform="translate(-183 -408.54)"/><path class="cls-4" d="M242.89,449.77a2.33,2.33,0,0,0,2.33-2.34V434.18a2.34,2.34,0,0,0-4.67,0v13.25A2.34,2.34,0,0,0,242.89,449.77Z" transform="translate(-183 -408.54)"/><path class="cls-5" d="M289.25,526.24l-8.8-1.07a43.18,43.18,0,0,0-6.93-16.91l5.55-6.94a3.7,3.7,0,0,0-.25-4.77l-4.5-4.55a3.7,3.7,0,0,0-4.77-.3l-7,5.48c-1.09-.77-2.23-1.48-3.39-2.14V481h3.19a3.19,3.19,0,0,0,3.19-3.19v-3.2a3.2,3.2,0,0,0-3.19-3.2H249.56v29.72c26.79,9.65,29.81,47,4.7,61.12-26.43,14.9-57.17-10-49.12-38.62,3.16-11.24,10.84-19.07,20.7-22.58V471.39H213.06a3.21,3.21,0,0,0-3.2,3.2v3.2a3.2,3.2,0,0,0,3.2,3.19h3.19V495c-1,.6-2.06,1.22-3,1.89l-6.94-5.54a3.69,3.69,0,0,0-4.77.25l-4.55,4.5a3.7,3.7,0,0,0-.3,4.77l5.48,7A43.05,43.05,0,0,0,195,524.74l-8.82,1a3.71,3.71,0,0,0-3.19,3.56l0,6.39a3.7,3.7,0,0,0,3.16,3.59l8.8,1.07a43.32,43.32,0,0,0,6.92,16.91l-5.54,6.94a3.69,3.69,0,0,0,.25,4.77l4.5,4.54a3.69,3.69,0,0,0,4.77.31l7-5.48a43.25,43.25,0,0,0,16.84,7.09l1,8.81a3.71,3.71,0,0,0,3.56,3.2l6.39,0a3.7,3.7,0,0,0,3.59-3.16l1.07-8.81a43,43,0,0,0,16.91-6.92l6.94,5.55a3.7,3.7,0,0,0,4.77-.25l4.55-4.5a3.7,3.7,0,0,0,.3-4.77l-5.48-7a43.31,43.31,0,0,0,7.09-16.84l8.81-1a3.69,3.69,0,0,0,3.2-3.55l0-6.39A3.7,3.7,0,0,0,289.25,526.24Z" transform="translate(-183 -408.54)"/><g class="cls-6"><path class="cls-4" d="M234.24,585.87a2.15,2.15,0,0,1-2-1.81l-1.12-10-1.13-.21a41.42,41.42,0,0,1-16.23-6.83l-.94-.67-7.91,6.19a2,2,0,0,1-1.24.4,2.06,2.06,0,0,1-1.46-.57l-4.5-4.55a2.13,2.13,0,0,1-.14-2.7l6.26-7.84-.65-1a41.39,41.39,0,0,1-6.67-16.3l-.2-1.14-10-1.21a2.14,2.14,0,0,1-1.79-2l0-6.4a2.14,2.14,0,0,1,1.81-2l10-1.12.21-1.13a41.42,41.42,0,0,1,6.83-16.23l.67-.94L197.88,500a2.13,2.13,0,0,1,.17-2.7l4.54-4.5a2,2,0,0,1,1.45-.56,2,2,0,0,1,1.25.41l7.85,6.27,1-.65c.86-.59,1.81-1.19,2.93-1.82l.79-.45V479.43h-4.75a1.65,1.65,0,0,1-1.64-1.64v-3.2a1.64,1.64,0,0,1,1.64-1.64h11.23v27c-10.24,4-17.54,12.21-20.65,23.24a34.87,34.87,0,0,0,5.77,30.74,35.81,35.81,0,0,0,28.29,14.32,35.63,35.63,0,0,0,35.21-38.59A34.53,34.53,0,0,0,251.12,500V473h11.23a1.64,1.64,0,0,1,1.64,1.64v3.2a1.65,1.65,0,0,1-1.64,1.64H257.6v16.51l.79.45c1.19.68,2.26,1.36,3.27,2.06l.94.66,7.91-6.18a2,2,0,0,1,1.23-.4,2,2,0,0,1,1.47.57l4.5,4.54a2.14,2.14,0,0,1,.14,2.71l-6.26,7.84.65.95a41.27,41.27,0,0,1,6.67,16.3l.2,1.13,9.95,1.22a2.14,2.14,0,0,1,1.79,2l0,6.39a2.15,2.15,0,0,1-1.81,2l-10,1.11-.21,1.14A41.55,41.55,0,0,1,272,556.71l-.66.94,6.18,7.91a2.13,2.13,0,0,1-.17,2.7l-4.54,4.5a2.09,2.09,0,0,1-1.45.56,2,2,0,0,1-1.25-.42l-7.85-6.26-.95.65A41.33,41.33,0,0,1,245,574l-1.14.2-1.21,10a2.14,2.14,0,0,1-2,1.79Z" transform="translate(-183 -408.54)"/></g></svg>