<svg id="Layer_1" data-name="Layer 1" xmlns="http://www.w3.org/2000/svg" viewBox="0 0 666 185.8"><defs><style>.cls-1{font-size:121.95px;font-family:BebasNeueBold, Bebas Neue;}.cls-1,.cls-2{fill:#00897b;}</style></defs><title>2</title><text class="cls-1" transform="translate(129.33 133.81)" font-weight="bold">TechAlchemy</text><path class="cls-2" d="M216.26,442.56l4-16.72a9.37,9.37,0,1,0-5-1.2L211,442.4a2.57,2.57,0,0,0,.31,2l10.28,16.77L215.9,486a2.59,2.59,0,0,0,5,1.2l5.92-25.92a2.56,2.56,0,0,0-.31-1.95Zm-.5-27.06a4.21,4.21,0,1,1,3.11,5.07A4.21,4.21,0,0,1,215.76,415.5Z" transform="translate(-151 -407.1)"/><path class="cls-2" d="M255,442.16a9.34,9.34,0,0,0-11.29,11.31l-8.57,5.25a2.62,2.62,0,0,0-1.16,1.6l-4.55,20.23a2.58,2.58,0,0,0,5,1.2l4.31-19.18,7.5-4.6a9.29,9.29,0,0,0,4.37,2.43A9.38,9.38,0,0,0,255,442.16Zm-3.17,13.21a4.21,4.21,0,1,1,5.08-3.11A4.21,4.21,0,0,1,251.78,455.37Z" transform="translate(-151 -407.1)"/><path class="cls-2" d="M204.4,456.86a9.25,9.25,0,0,0,2-3.86,9.38,9.38,0,1,0-11.3,6.93,9.24,9.24,0,0,0,5-.2L207,471l-.67,4a2.59,2.59,0,0,0,5,1.2l.91-5a2.58,2.58,0,0,0-.31-1.95Zm-8.14-1.95a4.21,4.21,0,1,1,5.08-3.11A4.21,4.21,0,0,1,196.26,454.91Z" transform="translate(-151 -407.1)"/><path class="cls-2" d="M231,456.36a2.57,2.57,0,0,0,3.11-1.91l3.42-14.24a2.59,2.59,0,0,0-5-1.2l-3.41,14.24A2.57,2.57,0,0,0,231,456.36Z" transform="translate(-151 -407.1)"/><path class="cls-2" d="M166.2,543.47a34.29,34.29,0,0,1,14.58-28l6.46-4.54v-49.6a7.61,7.61,0,1,0-15.21,0V503a49.46,49.46,0,1,0,66.48,9,28.7,28.7,0,0,1-15.59,5.69,34.22,34.22,0,1,1-56.72,25.77Z" transform="translate(-151 -407.1)"/><circle class="cls-2" cx="221.23" cy="488.87" r="20.63" transform="translate(-242.58 -354.22) rotate(-11.31)"/></svg>